<svg version="1.2" xmlns="http://www.w3.org/2000/svg" viewBox="0 0 270 270" width="270" height="270">
	<title>chakraui-svg</title>
	<defs>
		<clipPath clipPathUnits="userSpaceOnUse" id="cp1">
			<path d="m-365 6h997.83v257h-997.83z"/>
		</clipPath>
		<linearGradient id="g1" x2="1" gradientUnits="userSpaceOnUse" gradientTransform="matrix(0,257,-257,0,134.5,6)">
			<stop offset="0" stop-color="#7bcbd4"/>
			<stop offset="1" stop-color="#29c6b7"/>
		</linearGradient>
	</defs>
	<style>
		.s0 { fill: url(#g1) } 
		.s1 { fill: #ffffff } 
	</style>
	<g id="Clip-Path" clip-path="url(#cp1)">
		<g>
			<path class="s0" d="m134.5 6c71 0 128.5 57.5 128.5 128.5 0 71-57.5 128.5-128.5 128.5-71 0-128.5-57.5-128.5-128.5 0-71 57.5-128.5 128.5-128.5z"/>
			<path class="s1" d="m75.6 141l87.6-87c1.6-1.6 4.2 0.3 3.1 2.4l-32.6 59.7c-0.7 1.4 0.3 3 1.8 3h56.3c1.8 0 2.7 2.2 1.4 3.4l-98.8 92.2c-1.7 1.6-4.4-0.7-2.9-2.6l46.7-64.5c1-1.3 0-3.2-1.6-3.2h-59.6c-1.8 0-2.7-2.2-1.4-3.4z"/>
		</g>
	</g>
</svg>