<svg version="1.2" xmlns="http://www.w3.org/2000/svg" viewBox="0 0 150 120" width="150" height="120">
	<title>docker-svg</title>
	<style>
		.s0 { fill: #ffffff } 
		.s1 { fill: none;stroke: #e1e2e6 } 
		.s2 { fill: #1d63ed } 
	</style>
	<path class="s0" d="m-230-159.5h610.5c13 0 23.5 10.5 23.5 23.5v392c0 13-10.5 23.5-23.5 23.5h-610.5c-13 0-23.5-10.5-23.5-23.5v-392c0-13 10.5-23.5 23.5-23.5z"/>
	<path class="s1" d="m-231-159.5h610.5c13 0 23.5 10.5 23.5 23.5v392c0 13-10.5 23.5-23.5 23.5h-610.5c-13 0-23.5-10.5-23.5-23.5v-392c0-13 10.5-23.5 23.5-23.5z"/>
	<path fill-rule="evenodd" class="s2" d="m143 50.2l2.3 1.5c0 0-1.4 2.9-1.6 3.1-5.9 11.5-18.1 10.7-22.8 10.6-14 35.1-37.1 49.6-64.1 49.6-17.7 0-29.5-5.7-37.3-13.5q-1.9-1.9-3.5-4c-9.6-12.2-10.9-27.3-10.7-35.1h53.7c34.9 0 42.8 1.1 51.3-3.8-2.3-2.8-3.5-6.6-3.8-9.9-0.5-5.5 0.8-11.5 3.8-16l1.5-2.3 2.3 1.5c6.1 4.8 9.5 10.3 9.9 16.8 6.5-1.8 15.5-0.8 19 1.5zm-102.6 7.9h-15.2v-15.1h15.2zm19.5 0h-15.1v-15h15.1zm19.5 0h-15.1v-15.1h15.1zm19.6 0h-15.1v-15h15.1zm-78.2 0h-15.1v-15.1h15.1zm19.6-19h-15.2v-15.1h15.2zm19.5 0h-15.1v-15h15.1zm19.5 0h-15.1v-15.1h15.1zm0-19h-15.1v-15.1h15.1z"/>
</svg>